<svg width="20" height="21" viewBox="0 0 20 21" fill="none" xmlns="http://www.w3.org/2000/svg">
<path opacity="0.4" d="M1.01318 10.1753C1.01318 15.1229 5.02397 19.1337 9.97152 19.1337C14.9191 19.1337 18.9299 15.1229 18.9299 10.1753C18.9299 5.2278 14.9191 1.21701 9.97152 1.21701C5.02397 1.21701 1.01318 5.2278 1.01318 10.1753Z" fill="#C62800" fill-opacity="0.9"/>
<path d="M9.99705 5.95651C9.53887 5.95651 9.16744 6.32961 9.16744 6.78985C9.16744 7.25008 9.53887 7.62318 9.99705 7.62318H10.0045C10.4627 7.62318 10.8341 7.25008 10.8341 6.78985C10.8341 6.32961 10.4627 5.95651 10.0045 5.95651H9.99705Z" fill="#C62800" fill-opacity="0.9"/>
<path d="M10.468 9.65599C10.2263 9.41433 9.94155 9.34024 9.73568 9.31256C9.56513 9.28963 9.36682 9.28976 9.20026 9.28986L9.16744 9.28987C8.7072 9.28987 8.33411 9.66297 8.33411 10.1232C8.33411 10.5834 8.7072 10.9565 9.16744 10.9565V14.2899C9.16744 14.7501 9.54054 15.1232 10.0008 15.1232C10.461 15.1232 10.8341 14.7501 10.8341 14.2899L10.8341 10.9237C10.8342 10.7572 10.8343 10.5589 10.8114 10.3883C10.7837 10.1824 10.7097 9.89765 10.468 9.65599Z" fill="#C62800" fill-opacity="0.9"/>
</svg>
