<svg width="250" height="250" viewBox="0 0 250 250" fill="none" xmlns="http://www.w3.org/2000/svg">
<g clip-path="url(#clip0_177_9824)">
<mask id="mask0_177_9824" style="mask-type:luminance" maskUnits="userSpaceOnUse" x="0" y="0" width="250" height="250">
<path d="M250 0H0V250H250V0Z" fill="white"/>
</mask>
<g mask="url(#mask0_177_9824)">
<path d="M198.749 142.404C195.836 154.302 189.585 169.156 176.831 181.911C156.252 202.497 134.444 201.159 129.718 196.275C125.07 191.475 139.028 188.121 141.694 187.535C100.551 196.263 77.6909 192.785 69.1001 178.178C60.4803 163.523 82.6309 156.15 68.6564 150.749C65.1644 149.398 62.1842 147.116 59.6802 144.447C51.1639 135.377 48.0055 120.861 51.2514 107.597C54.1635 95.6984 60.4187 80.8443 73.1688 68.0854C93.7484 47.5033 115.556 48.8417 120.282 53.7254C124.93 58.5253 110.972 61.8793 108.306 62.4649C149.449 53.7373 172.312 57.2148 180.9 71.8218C189.52 86.4767 167.369 93.8498 181.344 99.2515C184.836 100.602 187.816 102.884 190.32 105.553C198.836 114.623 201.994 129.139 198.749 142.404Z" fill="#F8F9F9"/>
</g>
<mask id="mask1_177_9824" style="mask-type:luminance" maskUnits="userSpaceOnUse" x="0" y="0" width="250" height="250">
<path d="M250 0H0V250H250V0Z" fill="white"/>
</mask>
<g mask="url(#mask1_177_9824)">
<path d="M236.202 74.3021L233.392 75.8385C233.304 75.8869 233.234 75.9631 233.195 76.0558L231.664 79.6535C231.51 80.0163 230.995 80.0163 230.84 79.6535L229.309 76.0558C229.27 75.9631 229.201 75.8869 229.112 75.8385L226.303 74.3021C225.993 74.1322 225.993 73.6866 226.303 73.5167L229.112 71.9803C229.201 71.9319 229.27 71.8553 229.309 71.7627L230.84 68.1653C230.995 67.8022 231.51 67.8022 231.664 68.1653L233.195 71.7627C233.234 71.8553 233.304 71.9319 233.392 71.9803L236.202 73.5167C236.512 73.6866 236.512 74.1322 236.202 74.3021Z" fill="#E9EBEC"/>
</g>
<mask id="mask2_177_9824" style="mask-type:luminance" maskUnits="userSpaceOnUse" x="0" y="0" width="250" height="250">
<path d="M250 0H0V250H250V0Z" fill="white"/>
</mask>
<g mask="url(#mask2_177_9824)">
<path d="M230.751 201.675L228.627 201.053C228.56 201.034 228.489 201.037 228.424 201.063L225.917 202.073C225.664 202.175 225.413 201.924 225.514 201.671L226.525 199.163C226.551 199.099 226.554 199.028 226.535 198.961L225.912 196.836C225.844 196.602 226.062 196.384 226.296 196.452L228.421 197.075C228.488 197.094 228.559 197.091 228.623 197.065L231.13 196.054C231.384 195.953 231.635 196.204 231.533 196.457L230.523 198.964C230.497 199.029 230.494 199.1 230.513 199.167L231.135 201.291C231.204 201.526 230.986 201.744 230.751 201.675Z" fill="#E9EBEC"/>
</g>
<mask id="mask3_177_9824" style="mask-type:luminance" maskUnits="userSpaceOnUse" x="0" y="0" width="250" height="250">
<path d="M250 0H0V250H250V0Z" fill="white"/>
</mask>
<g mask="url(#mask3_177_9824)">
<path d="M32.1629 182.983L27.0055 185.803C26.8439 185.892 26.716 186.032 26.6438 186.202L23.8331 192.806C23.55 193.472 22.6054 193.472 22.3217 192.806L19.511 186.202C19.4388 186.032 19.3116 185.892 19.1493 185.803L13.9925 182.983C13.4231 182.671 13.4231 181.853 13.9925 181.541L19.1493 178.721C19.3116 178.632 19.4388 178.491 19.511 178.321L22.3217 171.718C22.6054 171.051 23.55 171.051 23.8331 171.718L26.6438 178.321C26.716 178.491 26.8439 178.632 27.0055 178.721L32.1629 181.541C32.7324 181.853 32.7324 182.671 32.1629 182.983Z" fill="#E9EBEC"/>
</g>
<mask id="mask4_177_9824" style="mask-type:luminance" maskUnits="userSpaceOnUse" x="0" y="0" width="250" height="250">
<path d="M250 0H0V250H250V0Z" fill="white"/>
</mask>
<g mask="url(#mask4_177_9824)">
<path d="M159.452 14.4246C159.452 17.051 157.323 19.1801 154.697 19.1801C152.071 19.1801 149.941 17.051 149.941 14.4246C149.941 11.7983 152.071 9.66919 154.697 9.66919C157.323 9.66919 159.452 11.7983 159.452 14.4246Z" fill="#25343E"/>
</g>
<mask id="mask5_177_9824" style="mask-type:luminance" maskUnits="userSpaceOnUse" x="0" y="0" width="250" height="250">
<path d="M250 0H0V250H250V0Z" fill="white"/>
</mask>
<g mask="url(#mask5_177_9824)">
<path d="M124.241 237.842C124.241 239.216 123.127 240.331 121.752 240.331C120.377 240.331 119.263 239.216 119.263 237.842C119.263 236.467 120.377 235.352 121.752 235.352C123.127 235.352 124.241 236.467 124.241 237.842Z" fill="#25343E"/>
</g>
<mask id="mask6_177_9824" style="mask-type:luminance" maskUnits="userSpaceOnUse" x="0" y="0" width="250" height="250">
<path d="M250 0H0V250H250V0Z" fill="white"/>
</mask>
<g mask="url(#mask6_177_9824)">
<path d="M23.078 63.5619C23.078 64.9366 21.9636 66.051 20.5888 66.051C19.2141 66.051 18.0996 64.9366 18.0996 63.5619C18.0996 62.1871 19.2141 61.0726 20.5888 61.0726C21.9636 61.0727 23.078 62.1871 23.078 63.5619Z" fill="#E9EBEC"/>
</g>
<path d="M162.902 104.708V127.136C162.902 143.685 153.941 158.931 139.487 166.994C132.249 171.031 124.442 176.366 117.806 183.147C111.169 176.366 103.36 171.031 96.124 166.994C81.6704 158.931 72.709 143.685 72.709 127.136V82.6828L117.806 66.6844L155.25 79.9677" fill="#E9EBEC"/>
<path d="M117.806 183.147C111.169 176.366 103.36 171.031 96.124 166.994C81.6704 158.931 72.709 143.685 72.709 127.136V82.6828L117.806 66.6844L117.806 183.147Z" fill="#F8F9F9"/>
<path d="M191.383 51.4843C191.383 68.2395 191.383 83.7987 191.383 83.7987C191.383 83.7987 179.768 88.3453 162.902 104.708C151.809 115.472 138.441 131.349 124.61 154.41L81.5952 107.317C81.5952 107.317 89.3993 100.567 97.5522 92.4166C108.642 103.507 124.741 119.146 124.741 119.146C124.741 119.146 133.747 101.084 155.25 79.9677C164.751 70.6368 176.697 60.7118 191.383 51.4843ZM60.9358 80.2538C59.6575 80.2538 58.6182 81.2907 58.6182 82.5715C58.6182 83.8523 59.6575 84.8891 60.9358 84.8891C62.2166 84.8891 63.2534 83.8523 63.2534 82.5715C63.2534 81.2907 62.2166 80.2538 60.9358 80.2538ZM60.9358 115.628C59.6575 115.628 58.6182 116.665 58.6182 117.946C58.6182 119.227 59.6575 120.264 60.9358 120.264C62.2166 120.264 63.2534 119.227 63.2534 117.946C63.2534 116.665 62.2166 115.628 60.9358 115.628ZM83.9878 65.7991C84.2463 65.7991 84.5074 65.7553 84.7635 65.665C85.9688 65.2357 86.6006 63.9108 86.1713 62.7057C85.7444 61.4981 84.4196 60.8687 83.2145 61.2956C82.0068 61.7225 81.375 63.0472 81.8043 64.2548C82.1409 65.2038 83.0338 65.7967 83.9878 65.7991ZM149.891 65.3233C150.148 65.416 150.409 65.4575 150.667 65.4575C151.621 65.4575 152.514 64.8647 152.851 63.9158C153.28 62.7082 152.648 61.3835 151.441 60.9566C150.235 60.527 148.911 61.1591 148.481 62.3665C148.054 63.5718 148.686 64.8964 149.891 65.3233ZM117.328 53.972C117.584 53.972 117.847 53.9279 118.103 53.8376C119.308 53.4107 119.938 52.0861 119.511 50.8784C119.084 49.6733 117.759 49.0413 116.552 49.4682C115.347 49.8977 114.715 51.2224 115.142 52.4277C115.481 53.379 116.374 53.972 117.328 53.972ZM91.4652 175.882C90.3478 175.255 88.9353 175.653 88.3083 176.767C87.6813 177.885 88.079 179.297 89.1963 179.924C89.5549 180.124 89.9429 180.222 90.3284 180.222C91.1382 180.222 91.9263 179.795 92.3507 179.039C92.9777 177.921 92.58 176.509 91.4652 175.882ZM174.673 114.616C173.392 114.616 172.355 115.653 172.355 116.933C172.355 118.212 173.392 119.249 174.673 119.249C175.954 119.249 176.991 118.212 176.991 116.933C176.991 115.653 175.954 114.616 174.673 114.616ZM170.46 149.454C169.294 148.922 167.92 149.436 167.391 150.6C166.859 151.766 167.374 153.14 168.537 153.672C168.85 153.813 169.174 153.879 169.496 153.879C170.377 153.879 171.219 153.376 171.606 152.523C172.138 151.359 171.624 149.983 170.46 149.454ZM65.5418 150.388C64.388 150.942 63.8976 152.322 64.449 153.479C64.8466 154.313 65.6761 154.799 66.5422 154.799C66.8764 154.799 67.2155 154.728 67.5375 154.572C68.6938 154.02 69.1842 152.64 68.6328 151.483C68.0814 150.327 66.6982 149.839 65.5418 150.388ZM116.149 196.728C115.254 197.643 115.268 199.109 116.183 200.005C116.635 200.446 117.22 200.666 117.806 200.666C118.406 200.666 119.008 200.434 119.462 199.97C120.358 199.053 120.34 197.587 119.426 196.692C118.511 195.796 117.042 195.813 116.149 196.728ZM144.99 175.399C143.885 176.043 143.514 177.463 144.161 178.568C144.59 179.307 145.366 179.717 146.161 179.717C146.559 179.717 146.964 179.614 147.33 179.4C148.435 178.753 148.808 177.333 148.162 176.228C147.515 175.123 146.095 174.752 144.99 175.399Z" fill="#1E874C"/>
</g>
<defs>
<clipPath id="clip0_177_9824">
<rect width="250" height="250" fill="white"/>
</clipPath>
</defs>
</svg>
